<svg width="33" height="32" viewBox="0 0 33 32" fill="none" xmlns="http://www.w3.org/2000/svg">
<g clip-path="url(#clip0_1128_15053)">
<path d="M1.61499 16.76H4.65499V15.24H6.18499V13.71H7.70499V12.19H9.23499V10.67H10.755V9.14H12.275V7.62H13.805V6.09H15.325V4.57H18.375V6.09H19.895V7.62H21.425V9.14H22.945V10.67H24.465V12.19H25.995V13.71H27.515V15.24H29.035V16.76H32.085V13.71H30.565V12.19H29.035V10.67H27.515V9.14H25.995V7.62H24.465V6.09H22.945V4.57H21.425V3.05H19.895V1.52H18.375V0H15.325V1.52H13.805V3.05H12.275V4.57H10.755V6.09H9.23499V7.62H7.70499V9.14H6.18499V10.67H4.65499V12.19H3.13499V13.71H1.61499V16.76Z" fill="currentColor"/>
<path d="M27.515 30.48H21.425V22.86H19.895V32H29.035V18.28H27.515V30.48Z" fill="currentColor"/>
<path d="M27.515 16.76H25.995V18.28H27.515V16.76Z" fill="currentColor"/>
<path d="M25.995 15.24H24.465V16.76H25.995V15.24Z" fill="currentColor"/>
<path d="M24.4651 13.71H22.9451V15.24H24.4651V13.71Z" fill="currentColor"/>
<path d="M22.945 12.19H21.425V13.71H22.945V12.19Z" fill="currentColor"/>
<path d="M21.425 10.67H19.895V12.19H21.425V10.67Z" fill="currentColor"/>
<path d="M19.895 21.33H18.375V22.86H19.895V21.33Z" fill="currentColor"/>
<path d="M19.895 9.14001H18.375V10.67H19.895V9.14001Z" fill="currentColor"/>
<path d="M18.375 19.81H15.325V21.33H18.375V19.81Z" fill="currentColor"/>
<path d="M18.375 7.62H15.325V9.14H18.375V7.62Z" fill="currentColor"/>
<path d="M15.3249 21.33H13.8049V22.86H15.3249V21.33Z" fill="currentColor"/>
<path d="M15.3249 9.14001H13.8049V10.67H15.3249V9.14001Z" fill="currentColor"/>
<path d="M13.805 22.86H12.275V30.48H6.18503V18.28H4.65503V32H13.805V22.86Z" fill="currentColor"/>
<path d="M13.8049 10.67H12.2749V12.19H13.8049V10.67Z" fill="currentColor"/>
<path d="M12.2749 12.19H10.7549V13.71H12.2749V12.19Z" fill="currentColor"/>
<path d="M10.7551 13.71H9.23511V15.24H10.7551V13.71Z" fill="currentColor"/>
<path d="M9.23508 15.24H7.70508V16.76H9.23508V15.24Z" fill="currentColor"/>
<path d="M7.70506 16.76H6.18506V18.28H7.70506V16.76Z" fill="currentColor"/>
</g>
<defs>
<clipPath id="clip0_1128_15053">
<rect width="32" height="32" fill="white" transform="translate(0.850098)"/>
</clipPath>
</defs>
</svg>
