<svg width="33" height="32" viewBox="0 0 33 32" fill="none" xmlns="http://www.w3.org/2000/svg">
<g clip-path="url(#clip0_1128_11711)">
<path d="M25.2301 19.81H23.7001V22.86H20.6601V24.38H17.6101V25.9H22.1801V27.43H23.7001V28.95H25.2301V30.48H26.7501V32H28.2801V30.48H29.8001V28.95H31.3201V27.43H32.8501V25.9H31.3201V24.38H29.8001V22.86H28.2801V21.33H26.7501V16.76H25.2301V19.81Z" fill="#000001"/>
<path d="M28.2801 10.67H26.7501V16.76H28.2801V10.67Z" fill="#000001"/>
<path d="M26.7501 7.62H25.2301V10.67H26.7501V7.62Z" fill="#000001"/>
<path d="M25.2301 4.57001H23.7001V7.62001H25.2301V4.57001Z" fill="#000001"/>
<path d="M23.7001 12.19H22.1801V15.24H23.7001V12.19Z" fill="#000001"/>
<path d="M22.1802 9.14H20.6602V12.19H22.1802V9.14Z" fill="#000001"/>
<path d="M23.7002 3.05H20.6602V4.57H23.7002V3.05Z" fill="#000001"/>
<path d="M20.6601 7.62H17.6101V9.14H20.6601V7.62Z" fill="#000001"/>
<path d="M20.6601 1.52H17.6101V3.05H20.6601V1.52Z" fill="#000001"/>
<path d="M17.6101 6.10001H14.5601V7.62001H17.6101V6.10001Z" fill="#000001"/>
<path d="M17.6101 25.9H11.5101V27.43H17.6101V25.9Z" fill="#000001"/>
<path d="M17.6101 0H11.5101V1.52H17.6101V0Z" fill="#000001"/>
<path d="M11.5101 24.38H8.47009V25.9H11.5101V24.38Z" fill="#000001"/>
<path d="M11.5101 1.52H8.47009V3.05H11.5101V1.52Z" fill="#000001"/>
<path d="M8.47004 22.86H5.42004V24.38H8.47004V22.86Z" fill="#000001"/>
<path d="M8.47004 3.05H5.42004V4.57H8.47004V3.05Z" fill="#000001"/>
<path d="M5.42015 19.81H3.90015V22.86H5.42015V19.81Z" fill="#000001"/>
<path d="M5.42015 4.57001H3.90015V7.62001H5.42015V4.57001Z" fill="#000001"/>
<path d="M3.90012 16.76H2.37012V19.81H3.90012V16.76Z" fill="#000001"/>
<path d="M3.90012 7.62H2.37012V10.67H3.90012V7.62Z" fill="#000001"/>
<path d="M2.3701 10.67H0.850098V16.76H2.3701V10.67Z" fill="#000001"/>
</g>
<defs>
<clipPath id="clip0_1128_11711">
<rect width="32" height="32" fill="white" transform="translate(0.850098)"/>
</clipPath>
</defs>
</svg>
